<svg xmlns="http://www.w3.org/2000/svg" width="1024" height="1024"><path fill="#010002" d="M718 37c4 4 6 7 8 12l1 3c6 20 10 40 13 61v3c6 38 4 76-1 114l3 2 5 2 2 2 5 3v2l2 1 5 5 1 2c5 6 7 12 9 20v3a459 459 0 0 1 8 72v3c0 9-2 16-7 23l-2 2-2 2-1 2-7 6c1 3 1 3 4 5l4 2 2 1 11 5 2 1 5 2 4 3c0 4-3 7-7 10-15 12-37 25-57 25l2 3c15 30 15 30 14 45l-5 2-5-2c-9-3-18-4-27-4v-2l-13 1h-3l-17 3 9 3a713 713 0 0 1 16 5v2l3 1c7 2 12 5 18 10l6 4c12 9 23 19 34 30l1-4-1-7v-30l2-13 1-4a121 121 0 0 1 26-53h2l1-2c11-21 46-36 68-43 10-3 20-6 30-5l3 3c1 6-1 9-4 13-14 24-16 52-10 78 4 17 12 34 19 50l3 8 4-6 1-3 3-5 7-12c5 1 5 1 7 3a157 157 0 0 1 4 11l1 3 3 7a189 189 0 0 1 11 111c-4 17-11 34-21 49l3-1 5-1 2-1 13-1-4 16-1 2a180 180 0 0 1-112 96c-16 5-33 9-50 9-11-1-11-1-20 4-4 4-8 8-10 13l3 1c4 1 3 2 5 5l3 4c6 8 9 17 8 28 0 3 1 4 4 7a315 315 0 0 1 13 16c58 76 58 76 55 98-2 4-5 5-9 7-10 3-20 5-31 6h-2c-16 2-31 2-47 2h-11c-65 0-65 0-77-10-4-8-1-15 1-23l7-13c2-3 3-5 3-9l-4-7-2-6-2-1-1-4-3 1-1-2-7-1c-10-1-10-1-14-4a206 206 0 0 0-9-3l-5-2v-2h-2l-2-1h-2l-4-3-8-6-7-5-2-1-4-3a93 93 0 0 0-19-14l-3-3-24-19-2-1c-4-4-8-5-13-6h-3l-7-2-5-1-9-1-10-2c-21-5-46 4-66 12v3c-1 9-2 16-6 23l-1 2h-2l5 22c14 55 14 55 12 66-4 5-11 6-17 8l-5 3v-2l-3 1c-42 8-85 9-127 9h-24l-3-1h-5l-2-1h-3l-22-2-4-1c-5-1-7-3-11-5-3-5-1-11 1-17l1-2c3-10 8-18 15-26l2-3c12-14 30-23 47-27h4l-1-3-2-18c0-4 0-4-2-6l-2-2-3-6h-2v-2l-2-13c-5-21-5-21-2-27l1-6c2-15 8-28 19-39h2v-2l6-5 2-1 15-10 2-1c24-14 51-24 78-29v-14h2v-2c0-8 2-14 6-20l2-2c2-2 2-2 2-5v-8c-1-5-2-8-7-11-4-3-6-7-9-11l-5-4 1-1-10 4-3 2-4 2a706 706 0 0 0-27 14c-77 42-77 42-113 33l-1-2-4-1c-15-5-27-16-38-27l-2-2-5-5v-2h-2l-3-5-2-3-2-3-2-3-7-13c-3-4-6-5-11-6-13-3-23-8-30-20s-13-25-12-39l-2-1v-2c1-4 1-7-2-10l-4-4a127 127 0 0 1-24-36c-11-19-13-39-11-60h2v-3c3-14 14-27 23-37l4-5 7-6a684 684 0 0 0 22-19l6-4c16-12 33-22 53-23h2l1-2v2h3c14 2 27 6 37 17l3 6c2 3 3 5 7 6l6 1c3 0 5 1 7 3l2 2c15 10 22 28 25 45 3 23-1 46-14 66l-2 5 4 7c7 14 12 30 7 46l-1 2 2 1 6 4 6 2c3-2 4-3 5-6l3-3 2-2 2-2 2-2 7-4v-4l2-1c4-1 7-4 10-6a312 312 0 0 1 25-21l21-15-1-4-5-2-8-4-3 1v-2l-4-4v-2h-2l-4-6-3-3c-5-7-5-7-5-11l-2-1-2-8c-2-6-7-9-12-11l-4-2c-5-2-7-3-9-8a98 98 0 0 1-2-11l-1-6-3 1-4 2-2 1-10 2c-2-6-2-10-1-16l1-2c3-17 10-37 24-48 4-3 6-5 7-9a118 118 0 0 0-1-19v-3l1-5-2-1h2v-10l1-10-2 1h-3l-2-2-3-1-3-5c1-5 2-5 5-8 3-4 3-4 4-9l-5-14-1-3-3-6h-2v-3l-4-16-2-10-3-1v-11l-2-1-1-5a409 409 0 0 0-2-22v-3a372 372 0 0 0-2-9v-10c1-11 1-11-2-22h2v-26h2v-2l2-21v-4l4-25 1-3c1-6 2-10 7-13 18-4 49 16 64 25l20 15 3 2 12 11v2h2l3 3 2 2 1 4c4-2 6-4 8-7 16-20 35-35 57-48l4-3 6-3 2-1 5-1 1-3h4l7-3c12-5 12-5 19-5l1-4 1 2h7l1-2a85 85 0 0 1 6 2l3 4-2 9-1 3-2 4c-6 15-6 15-9 31l7-5 12-5 3-1c20-8 20-8 29-8l1-2v2l4 1v2l1 3 2 1h-2v3l-4 14-5 22 3 1 1 3h7l4-5 12-15 7-7a98 98 0 0 1 14-13 264 264 0 0 1 48-32c44-25 44-25 57-23ZM284 237l1 2Zm248 211 1 9v5l1 2 1 4 1 10 33 1c0-11-3-19-10-27-7-6-19-9-27-4Zm-21 7-2 1-12 10v2h-2c-4 3-4 3-6 8l-3 1-2 4 1 2-3-1v2a254 254 0 0 0 31-5h8c3-1 3-1 5-4 0-4 0-4-2-7a592 592 0 0 0-4-18c-3 0-6 3-9 5Zm-50 49-6 3-3 2-3 1c1 4 1 7 3 10l2 2 1 2h2l1 3h2l1 2c2-2 1-6 2-9a198 198 0 0 1 0-15l-2-1Zm-78 6-3 1h-2c1 4 4 7 7 10l2 3 2 2 3-6 1-3 1-8-11 1Zm379 27v3Zm1 3 1 2Zm-91 89a716961396010415 716961396010415 0 0 0-11 28l-2 7h2l2 1 1 2h-5l-1-2v3l23 3 3-4 17-22-4-1v-2l2-1c-13-8-13-8-27-12Z"/><path fill="#6E4AD8" d="M708 59c11 35 15 70 15 107v4c0 18 0 36-3 54l-18-4 3-19 1-35v-3c0-23 0-47-5-69a166 166 0 0 0-29 25l-10 10-2 3c-22 25-37 51-43 84l2-1 10-2 4-1 16-3c-2 8-5 15-10 22v4c1 3 4 5 6 7l-1 1c-15 17-23 28-22 51l1 15 1 2c2 52 2 52 24 96 6 5 13 7 21 7 10 1 16 3 23 10l4 3c8 7 14 16 19 24l1 3c3 3 4 6 5 10h-2c-32-6-65-2-93 17l-19 19c-6 6-13 10-20 14l-2 1c-7 4-13 6-21 8l-7 2-3 1c-27 8-48 18-68 37l-1 2a75 75 0 0 1-22-4l-13-5 4 15c-18-4-38-17-49-32-2-6-1-11 2-17l1-3 3 1h9c12-1 12-1 17 2l6 8c7 8 16 15 27 17 6-15 6-30 7-46 29-7 56-8 86-8h10c6 0 6 0 11-2 6-7 6-18 5-27-2-13-8-23-19-31-12-8-27-9-42-7-21 5-37 21-50 37a427 427 0 0 1-14 15 59 59 0 0 1-38 22c-10 1-20-1-28-8-7-7-10-13-10-23l3-1 5-2 3-1c11-5 19-11 26-21 2-5 2-10 0-15-13-10-33-9-48-9h-4c-8 0-16 0-23 6-2 7-2 13 0 20 5 9 11 15 20 19 4 1 6 2 7 6l2 7c1 6 4 10 7 15-7 3-16 5-23 2-13-5-20-13-25-25-4-10-5-22-1-32l2-4 1-2c15-21 41-30 65-34 8-2 16-2 25-2h38c-21-10-39-12-62-11l1-2 1-5 2-6c2-6 3-12 2-19v-3c0-8-1-15-4-22l-1-3-1-2c-2 6-3 11-3 17v3l-1 6-12-10-2-3-3-2-7-7-6-4-2-3-3-2a93 93 0 0 0-7-6v-2l-2-1c-3-1-5-4-8-7-7-7-14-13-23-18-1-22 20-48 32-65l2-2 1-2h2v2c5 18 13 34 28 45 7 5 16 9 25 9l-1-1c-21-19-38-39-40-68-1-15 3-28 11-40l2-1 1 3v5l1 2 3 12 1-3 2-6 1-4a161 161 0 0 1 59-75c14-10 32-21 49-24l-4 16c-6 17-10 37-10 56l1-1a135 135 0 0 1 35-29c7-5 16-8 25-11l-1 3c-4 15-6 30-7 46l2-1h17a886 886 0 0 0-5 12v2c-2 4-2 7-2 11v16l1-1 10-15 3-6a334 334 0 0 1 65-71c17-13 50-39 72-39Z"/><path fill="#6C49D8" d="m690 508 3 1c9 4 16 9 24 15l2 2a319 319 0 0 1 31 26l27 27 7 7 4 4 2 2 19 21 2 2c9 12 15 24 13 40-2 14-10 27-18 38l-6-8c-17-24-42-34-70-40l12-8 2-1 29-10 8-3a68 68 0 0 0-56 6l-8 2-8-5a203 203 0 0 0-55-23 715 715 0 0 0-36-10c10 13 20 22 35 28l-1 2a2385 2385 0 0 0-12 31l-1 3-2 7c-3 8-3 8-6 10l-5 2c-9 5-16 12-20 22-2 4-3 6-7 8l-13 2h-4a500 500 0 0 1-32 4h-2c-15 1-15 1-19-1l-4-4-9-6-3-1c-9-4-17-6-27-5h-3c-8 0-14 1-21 4l-3 2-10 6c-8 0-16-3-24-6v-16c-1-10-1-10-5-18l-2-2v-2l-2-1c-15-8-23-32-27-48-3-11-4-22-5-33l-1-9a74 74 0 0 0-8 56l1 6-5 3-4 2-3 2-4 3a1747 1747 0 0 1-29 17l-9 4c-36 21-36 21-50 25l-3 1c-15 4-33 4-47-3-10-7-20-15-28-25l-2-3c-15-19-15-19-15-22h2c22-6 42-12 60-26l2-2c6-4 12-9 16-15l3-3c13 10 22 26 24 43l1 22h2l1-2 3-7c6-11 7-23 3-35l-4-10-2-3 5-7 2-2 3-1 2-2 22-17 7-6a892 892 0 0 1 28-20c12-9 12-9 16-9l6 5c4 5 8 8 14 9 7 2 9 5 13 10l11 8 2 2 3 2c6 4 10 7 14 13 12 16 30 31 50 34 17 1 32-5 46-13l2-1a199 199 0 0 0 33-24c12-9 22-20 32-30 17-18 34-32 56-42l2-1c12-5 21-5 33 0Z"/><path fill="#CF33C0" d="m408 753 2 2c7 5 16 7 24 10 3 1 3 3 5 6 3 5 6 8 11 12l2 1c13 10 30 12 46 10 10-2 20-6 28-14 5-4 10-4 16-4l7-1h3c8 0 15-2 23-3l14-2v3c-3 20-2 36 11 53 14 16 37 25 58 27 26 2 50-7 72-20 7 4 12 8 16 15 2 8 1 13-2 20-13 19-37 28-58 33-15 3-33 3-47-3l-3-1c-15-7-29-19-42-29l-3-3-13-10-24-18-2-1c-10-7-22-9-34-11-37-7-72-23-104-43 10 17 26 30 42 41-2 3-6 4-9 5-26 10-26 10-48 26l12-1c2 4 1 8 1 12-3 6-8 9-14 12-31 11-64 7-94-5h-2c-6-3-9-5-11-11-6-17-8-36 1-54 18-31 61-43 93-52l2-1 6-1 4-1c4-1 7-1 11 1Z"/><path fill="#7679E3" d="M469 375h9l6 7c6 10 18 17 29 20 18 3 36 0 51-10l13-12-1 5h2c20 0 38 0 57 7v-1l1-4 1 3 2 4 1 1c4 9 9 14 18 17 6 2 13 3 19 3 7 1 10 5 15 9l2 2c9 7 15 16 21 25l1 3c3 3 4 6 5 10h-2c-33-6-65-2-93 17l-19 19c-6 6-13 10-20 14l-2 1c-7 4-13 6-21 8l-7 2-3 1c-27 8-48 18-68 37l-1 2a75 75 0 0 1-22-4l-13-5 4 15c-18-4-38-17-49-32-2-6-1-11 2-17l1-3 3 1h9c12-1 12-1 17 2l6 8c7 8 16 15 27 17 6-15 6-30 7-46 29-7 56-8 86-8h10c6 0 6 0 11-2 6-7 6-18 5-27-2-13-8-23-19-31-12-8-27-9-42-7-21 5-37 21-50 37a427 427 0 0 1-14 15 59 59 0 0 1-38 22c-10 1-20-1-28-8-7-7-10-13-10-23l3-1 5-2 3-1c11-5 19-11 26-21 2-5 2-10 0-15-13-10-33-9-48-9h-4c-8 0-16 0-23 6-2 7-2 13 0 20 5 9 11 15 20 19 4 1 6 2 7 6l2 7c1 6 4 10 7 15-7 3-16 5-23 2-13-5-20-13-25-25-4-10-5-22-1-32l2-4 1-2c15-21 41-30 65-34 7-2 15-2 22-2h22a231 231 0 0 1 19 1c4 0 6-3 8-5 3-3 5-3 9-3l-3-4-1-3c-3-3-5-5-9-6h-3v-1Z"/><path fill="#390C79" d="m373 536 6 5c4 5 8 8 14 9 7 2 9 5 13 10l11 8 2 2 3 2c6 4 10 7 14 13 11 14 25 26 41 32v2l-15 2 14 16c-7 4-16 2-24 0-14-3-26-10-38-18-1 17 4 37 13 51l2 3-1 3-7-8-2-2-1-1v-2l-2-1c-15-8-23-32-27-48-3-11-4-22-5-33l-1-9a74 74 0 0 0-8 56l1 6-5 3-4 2-3 2-4 3-9 5-8 4a1983 1983 0 0 1-21 12c-36 21-36 21-50 25l-3 1c-15 4-33 4-47-3-10-7-20-15-28-25l-2-3c-15-19-15-19-15-22h2c22-6 42-12 60-26l2-2c6-4 12-9 16-15l3-3c13 10 22 26 24 43l1 22h2l1-2 3-7c6-11 7-23 3-35l-4-10-2-3 5-7 2-2 3-1 2-2a819 819 0 0 1 55-42l2-1c12-9 12-9 16-9Z"/><path fill="#7881E5" d="m867 398-1 4a198 198 0 0 0-5 15c-7 31 1 63 13 91 14 34 22 70 8 106-8 21-22 39-40 52h-1v-15c0-11-2-20-7-30l-1-2c-5-10-12-20-20-28l-7-8-9-8c-12-9-15-18-17-33l-1-7-1-27v-2c0-30 10-53 30-74l2-2c12-13 38-32 57-32Z"/><path fill="#5A1DAA" d="M198 392c12 7 12 7 14 12l-3 2-5 3a1871 1871 0 0 1-16 11l-4 1-9-4c-9-4-16-6-26-5-5 2-6 5-9 9l3 1c11 1 21 3 30 10l-3 7c-4 8-6 16-7 25l-1-1c-12-10-25-14-40-12l-5 3 1 3 8 2c13 4 26 10 33 23 6 10 10 20 8 31-2 6-7 11-12 14-7 4-14 5-22 3-5-2-7-3-10-7l-1-7 12 4-1-3-1-4-1-4-1-6h-2c-10 2-18 0-26-6 1 6 2 9 7 13 2 3 2 6 2 9 1 9 4 14 10 20a39 39 0 0 0 54-12c6-10 7-18 7-29h5v2c2 9 5 15 12 20l6 3-7-19-1-4 3-1c14-3 26-8 34-20 4-8 5-17 3-25v-2l-2 3c-8 15-17 25-34 30-4 1-8 1-13-1-5-5-8-10-9-18-1-10 3-18 10-26 10-10 22-23 37-23 7 0 13 2 18 7 11 15 13 35 12 53a82 82 0 0 1-36 54l-15 13a99 99 0 0 1-38 25l-2 1c-12 3-24 1-35-4-22-13-39-39-47-64-3-13-2-28 3-40l1-3c4-8 11-15 17-22a344 344 0 0 1 15-14l5-4c19-16 48-40 74-27Z"/><path fill="#571CA6" d="M653 684h2a121 121 0 0 1 44 10c23 8 39 20 50 42 7 14 9 33 4 48l-10 16-2 3a101 101 0 0 1-104 29l-3-1c-7-3-13-6-18-11l-2-2c-6-5-12-13-13-22a4770 4770 0 0 1 2-1 6330 6330 0 0 1 5 5c8 8 19 16 31 17a236 236 0 0 0 18 0v-3h-2c-17-5-32-12-42-28-4-7-6-13-5-21 2-5 5-9 9-13h2l1 2c4 11 11 20 22 26 9 4 16 4 26 4l1-3-2-1c-14-6-28-13-35-27-3-7-3-14-1-21 3-6 9-12 16-16 9-1 9-1 13 1l5 4 11 8v-11c0-4 0-7-3-11l-5-3-3-1c-7-3-16-3-24 0-12 5-18 14-25 25l-1 2h-1c-1-13 5-25 13-35l8-7 2-1c5-3 10-3 16-3Z"/><path fill="#787EE5" d="m506 71-4 16c-6 17-10 37-10 56l1-1a135 135 0 0 1 35-29c7-5 16-8 25-11l-1 3-5 21v3l-1 10c0 9 0 9-2 13-6 5-13 7-20 10l-14 8-3 2a157 157 0 0 0-26 21 240 240 0 0 0-15 15l-6 6-1-2 1-3a166 166 0 0 0 0-10v-3c-24 37-24 37-39 77l-1-2h-2l-5-4-2-2-3-2-2-2a90 90 0 0 1-30-61c0-14 4-26 11-38l2-1 1 3v5l1 2 3 12 1-3 2-6 1-4c11-30 32-54 57-73l2-2c12-9 33-24 49-24Z"/><path fill="#380B75" d="M916 540c14 14 12 50 12 67 0 45-25 80-56 111 17-3 32-8 48-16a45 45 0 0 1-8 15 135 135 0 0 1-17 20c-9 10-20 17-31 23l-3 2c-25 14-58 25-87 24l11-10c14-13 25-27 28-46v-8c0-6 0-6 2-10l5-4c10-11 17-27 19-41l3-3 3-1 7-6 2-2c15-14 27-34 31-54 1-4 1-5 4-7a206 206 0 0 0 27-54Z"/><path fill="#010002" d="M591 287c7 5 14 11 19 18v2l-8 3-2 1-2 1h-2l-6 1 1 4c4 21 0 42-11 60-10 14-24 22-39 26-16 3-30 1-44-7-7-5-14-11-19-19v-2h-4c-4 0-7-1-10-4-3-5-4-9-3-15v-3c0-13 7-22 14-32v10l-1 13v10a1560 1560 0 0 0 62-46l4-3 2-1 11-10c13-10 23-15 38-7Z"/><path fill="#370B74" d="M299 889a114 114 0 0 0 10 3l3 1a165 165 0 0 0 92-1c6 16 11 32 15 49v2l3 17a1003 1003 0 0 1-125 10c-21 0-42 0-63-4 2-13 12-23 22-31a118 118 0 0 1 22-11c17-6 37-5 53 2l6 2c-6-7-12-14-21-16-11-3-11-3-13-7-2-5-4-10-4-16Z"/><path fill="#360A72" d="m300 83 15 5 3 1c26 12 46 30 66 50l-5 7a72 72 0 0 0-18 41c-1 6-3 9-7 13-18 16-35 46-39 69-6-3-8-17-10-23-8-26-12-54-12-81v-3c0-27 2-53 7-79Z"/><path fill="#6B48D7" d="m821 499 10 16 2 3c8 15 15 32 18 50h2c11-19 15-38 18-60l2 3 2-1c14 33 21 69 7 104-8 21-22 39-40 52h-1v-15c0-11-2-20-7-30l-1-2c-5-10-12-20-20-28l-7-8-14-14c-4-3-6-5-6-10s1-9 3-13l1-3c7-15 15-28 27-40l2-2 2-2Z"/><path fill="#380B75" d="M755 879a235 235 0 0 1 28 34c36 45 36 45 36 59l-12 2h-6l-4 1-3 1-29 1h-20a785 785 0 0 1-52-1l-13-2c3-16 14-30 28-39 19-12 39-14 61-14l-5-3-3-2c-13-7-31-5-44-1-10 3-19 9-28 15l-6-10 5-1c27-8 48-18 67-40Z"/><path fill="#8E3FE4" d="M153 109c4 1 6 3 8 6l1 3 2 3 2 3 5 10a4035 4035 0 0 1 12 22c2 5 2 5 6 9l4 7a716 716 0 0 0 32 60l1 2 1 2 1 2 1 6-2 2-3-1a269 269 0 0 0-12 0l-5-1h-17l-8 1v-2l-3 1 1 2 4 9 1 4 4 9a1063 1063 0 0 0 3 8l1 4 2 1 1 4 5 15 1 2 2 5 15 39 1 3 1 4 1 2 2 9-5 1-5-8-1-2-21-34a3044 3044 0 0 0-34-56l-2-4-4-5-1-4c-2-2-3-4-6-5v-2l-4-8v-2l-4-1v-4l-2-4-1-2a1630 1630 0 0 0-5-8v-6c2-2 8-1 12-1l43 3v-3l-2-2-3-8c-2-9-6-17-9-26l-1-3-4-9v-2l-4-12-2-5-2-8-3-7-1-3-3-12 3-3Z"/><path fill="#6E4AD9" d="M260 592c12 10 20 24 24 39 1 13 2 26-5 38l-2 3c-4 7-9 13-15 18h-2l-1 3a72 72 0 0 1-65-30l-2-3c-15-19-15-19-15-22h2a155 155 0 0 0 62-28c6-4 12-9 16-15l3-3Z"/><path fill="#541BA4" d="M244 535c6 6 10 18 10 27-1 9-5 15-11 22l-3 3a110 110 0 0 1-78 34h-4c-8 0-13-1-19-6-4-4-7-9-9-14l-1-2c-3-6-5-11-5-18l2 1h3l2 1 3 1 4 1c23 6 47-3 67-15l12-9 2-1 25-25Z"/><path fill="#972CD4" d="M509 716c9 6 14 14 17 23 1 10 0 18-6 25-6 8-14 13-24 15-14 1-26 0-37-8-7-6-12-13-13-23-1-11 2-19 10-27 14-13 37-14 53-5Z"/><path fill="#5F12AD" d="m749 263 3 1 3 8v2a202 202 0 0 1 6 35c5 41 5 41 1 49l-3 3-2 2c-22 21-22 21-30 21l-6-18v-3l-5-26v-2l-2-17v-4l-1-9-1-2c0-5 1-8 4-11a154 154 0 0 1 10-10l2-1 16-14 3-2 2-2Z"/><path fill="#8E3FE4" d="M65 222c3 0 5 0 8 2l2 4 9 8 4 5 2 2 4 4v2l2 1c3 1 5 4 7 6l3 3 1 2 6 6 2 2 4 5 2 2 2 1 2 5h2l4 5 9 10 8 10v3l-28 4-4 1-9 1a617 617 0 0 0 13 20l6 8a763 763 0 0 1 10 19l-6 1-6-4-3-3-2-2a200 200 0 0 0-20-13l1-1-29-22-2 1-1-2-2-3h-2l-9-10c2-4 3-4 7-5l4-1 3-1 4-1 7-2 8-3 5-1 2-1 9-1-10-16a657 657 0 0 1-30-49l1-2Z"/><path fill="#390B77" d="M636 279c12 0 23 2 34 6 2 2 1 3 1 5a246 246 0 0 1 1 7c2 33 6 69 15 101-19 0-19 0-27-2l-3-1c-4-2-5-6-6-11-7-23-11-46-13-70l-1-2-1-33Z"/><path fill="#581EA9" d="M767 675a119 119 0 0 1 16 14c9 9 14 22 14 35 0 15-10 26-20 37l-5 4v-2c-2-26-10-45-29-64-13-11-29-19-45-23 4-7 10-13 18-16 18-3 36 6 51 15Z"/><path fill="#9135E0" d="M727 245c6 2 11 6 15 10l-8 10-2 1-9 9c-11 8-11 8-17 21l2 26v2l5 36v2c1 9 3 18 7 27-6 5-13 9-21 8-9-14-10-34-13-50l-1-6c-8-51-8-51-2-62l7-6 4-4 12-11 2-1 5-5 2-1c7-7 7-7 12-6Z"/><path fill="#D542F9" d="M573 320c3 6 2 13 2 19v3c0 14-4 25-14 35-3 3-7 6-12 8l-2 1c-7 3-12 3-19 4h-3c-10-1-19-6-26-13-6-5-6-5-7-9l1-4 6-3 21-12 4-2a1017 1017 0 0 0 36-23l3-1 3-2 2-1h5Z"/><path fill="#6E4DD7" d="m640 401 1 1c11 9 23 13 36 13 7 1 10 5 15 9l2 2c9 7 15 16 21 25l1 3c3 3 4 6 5 10l-21-3v-1h-4c-7 1-14 1-20-4l-10-11c-15-17-41-25-61-33 3-3 6-3 9-4l2-1 24-4v-2Z"/><path fill="#380A76" d="M690 122h1c4 17 3 34 3 51v33l-2 10h-2c-8 0-15 2-22 5l-5 1v-2l5-34-3 1-5 2-2 1-11 3c7-21 17-41 32-58l10-11 1-2Z"/><path fill="#3E0D7F" d="m322 318 6 4v13c0 19 2 39 16 54l8 6 5 4-2 1c-15 10-28 22-33 40v2l-12-2c-1-8 2-15 4-23l1-4 1-3c-6 0-10 1-15 3l-3 1-5 2c1-12 9-21 17-29l2-2 8-7c3-3 3-3 3-7l-1-4v-4l-1-2-1-22v-3l2-18Z"/><path fill="#E149FC" d="m343 327 13 8a391 391 0 0 0 43 28c-2 9-8 17-16 22-5 3-11 3-16 1-9-3-16-9-20-18-4-10-5-19-5-29v-2l1-10Z"/><path fill="#390B77" d="m583 541 1 2-2 2-7 7c-19 22-40 41-68 51l-2 1c-8 2-18 2-26-2l-2-1-3-2c-6-3-11-8-16-13 3-2 6-1 9 0 33 2 64-14 92-31l7-4 10-6 2-1 5-3Z"/><path fill="#380A75" d="M598 724v4l1 5a256 256 0 0 0 2 16c-19 8-39 11-60 12l1-3v-16l-1-12h2a408 408 0 0 0 55-6Z"/><path fill="#3A0B7A" d="M690 232h3c7 1 13 3 20 6l-1 4a223 223 0 0 0-4 4l-2 2a334 334 0 0 0-14 12c-5 4-12 10-15 16l-11-3-23-5c3-6 8-10 12-15l2-2c5-6 11-10 17-14l3-2c4-3 8-3 13-3Z"/><path fill="#020004" d="M497 727c5 3 9 7 11 13 2 5 2 9-1 13-5 7-10 9-17 11-8 1-14-1-20-5-5-4-8-9-8-15s2-9 6-13c8-7 19-9 29-4Z"/><path fill="#010002" d="M745 288v3l2 15a570 570 0 0 1 4 42l-7 8-2 1-7 4-3-17-1-5-5-38a52 52 0 0 1 8-6 565 565 0 0 1 7-6l4-1Z"/><path fill="#3C0C7B" d="m414 713 14 5 3 1 6 2-2 10-3 18c-7-2-15-5-19-12l-1-9v-4l2-11Z"/><path fill="#3D0C7D" d="m744 396 7 4 10 4-3 4-3 2-3 1c-8 3-16 2-25 0l-3-1-8-2v-2l2-1 18-9h8Z"/><path fill="#420F80" d="m491 735 7 7c1 4 0 6-2 9-5 3-10 3-16 2l-7-6v-7c5-6 11-6 18-5Z"/><path fill="#843AD4" d="M77 368h3v2l3 1 9 5a2184 2184 0 0 0 11 10h-2l1 3c-9-2-16-6-23-12l-4-2-3-4v-2l5-1Z"/><path fill="#B549F4" d="M722 146h1c1 52 1 52-3 78l-18-4 2-15 1-3v-2c3 4 2 6 2 11l-2 4 1 4h4l9 1v-2l1-13v-17l1-7a206 206 0 0 0 1-23v-12Z"/><path fill="#511199" d="m322 318 6 4v18l-1 10h-1l-2-13h-1l-1 18h-1l-1-16v-3l2-18Z"/><path fill="#8C88ED" d="m359 415 1 3h3l10-1h7v1h-3c-14 1-14 1-26 8-3 4-4 9-4 14h-1v-8l-3 1-1-4c4-6 11-10 17-14Z"/><path fill="#868BE0" d="M388 161h1v7h-4c-5 13-7 26-7 40-5-8-2-19 0-28 2-6 5-14 10-19Z"/><path fill="#843BD5" d="m65 222 6 1 4 6h-2l-1 9-8-11 1-5Z"/><path fill="#8461EB" d="M412 367h1l-3 15h13a617 617 0 0 0 10 1h4l6 2h-37l6-18Z"/><path fill="#7934CB" d="M218 347c3 3 3 5 4 8l1 4v6h-4c-3-3-4-5-4-9v-3l3-1v-5Z"/><path fill="#6A43D2" d="m492 182 2 1-12 12-4 5a1144 1144 0 0 1-13 12h-2c1-3 3-6 6-8l2-2 3-3 2-2a257 257 0 0 1 16-15Z"/><path fill="#933ADB" d="M705 200c3 4 2 6 2 11l-2 4 1 4h4l10 2v3l-18-4 2-15 1-3v-2Z"/><path fill="#7C6DE5" d="M635 387c3 1 3 3 4 6l5 9-1 2-1-1c-3-3-6-3-10-3v-8l4 1-1-6Z"/><path fill="#6E24C5" d="m601 793 2 2 1 1 4 4c6 7 13 11 21 15h-6c-7-4-12-9-18-15l2 8c-5-4-5-9-6-15Z"/><path fill="#5D20AF" d="M621 704v4l-1 5v4l-2 7-1 3-3 3c-1-9 2-18 7-26Z"/><path fill="#460F8B" d="M636 279h9l6 2h-13v21h-1l-1-15v-8Z"/><path fill="#6E61DB" d="m462 398 5 1h5v1h-27v-3c12-2 12-2 17 1Z"/><path fill="#6C6DD5" d="M528 493h13l9 1h3a2592 2592 0 0 0 7 1h8v1h-40v-3Z"/><path fill="#47108F" d="m803 756 1 2-7 9-2 2-2 3-3 2-10 9-2-1 3-2c12-11 12-11 22-24Z"/><path fill="#7527D3" d="M139 450c8 0 16 5 23 10l1-9h1l-1 13-3-3c-7-4-13-8-21-10v-1Z"/><path fill="#D741EF" d="m345 329 2 2-1 1-1 9v8l-3-2v-16h2l1-2Z"/><path fill="#6A64D0" d="M366 416h21l1 2-10 1h-4c-4 0-4 0-8-3Z"/><path fill="#9697F0" d="M388 161h1v7h-4a179 179 0 0 1-5 15h-1c1-5 2-10 5-14v-2l4-6Z"/><path fill="#421086" d="m458 585 8 1-2 1c1 4 4 5 7 8l2 1 4 3-2 1c-7-4-12-9-17-15Z"/><path fill="#EE53F6" d="m492 365 3 1-1 1 2 1 1 2c2 6 7 10 13 13l-1 2c-7-4-14-10-17-17v-3Z"/><path fill="#8156E4" d="m649 209-1 4-1 3-3 6c-2-3 0-6 1-10l-9 1c2-2 3-2 7-3l2-1h4Z"/><path fill="#8D7CF5" d="M676 456a936 936 0 0 0 9 2l3 1a3142 3142 0 0 0 6 0h7v1l-27 1 2-4v-1Z"/><path fill="#8039CE" d="M186 163c3 2 4 3 5 6l1 2 1 2 1 2 3 6-1 2-1-3-3-1-3-7-1-2-2-7Z"/><path fill="#8986E9" d="m435 562 9 3 5 1 1-2 4 7c-7-2-13-4-19-8v-1Z"/><path fill="#8484EB" d="m349 424 1 4-2 4-1 8h-1v-8l-3 1-1-4 2-1 5-4Z"/><path fill="#895BE9" d="m702 63-8 4-2 1-2 1-2 1-4 1v2h-4v-2l9-5 3-1a324 324 0 0 1 5-2h5Z"/><path fill="#5514A4" d="m300 399 1 2-3 6-2 3-1 3 7-2c-1 3-2 3-5 4h-2l-2 1 4-12 2-3 1-2Z"/><path fill="#130B20" d="m699 641 4 2c-1 4-2 6-5 8l-2 2-2 2-2-1 8-8-3-2v-2l2-1Z"/><path fill="#7227CF" d="m203 427 2 1-17 15 6-9 3-2 6-5Z"/><path fill="#A241E8" d="M705 200c3 4 2 6 2 11l-3 7h-1v-6a519 519 0 0 1 2-12Z"/><path fill="#7F37CD" d="m205 198 7 10 2 3 1 3-1 2-1-2-1-3-3-1-4-12Z"/><path fill="#7C37C9" d="m166 127 7 10 2 3 1 3-1 2-1-2-1-3-3-1-2-5-1-3-1-4Z"/><path fill="#46108E" d="M311 430h1l1 8 8 3c-5 1-7 0-11-1l1-10Z"/><path fill="#883CDA" d="M199 299h2l2 5 1 2v7l-4-6v-2l-1-6Z"/><path fill="#6A3ED2" d="M460 195h1l-1 13h-1l-1-5-4 3c1-4 3-7 6-11Z"/><path fill="#7532BC" d="m96 380 7 5-2 1 1 3-7-5h-2v-2h3v-2Z"/><path fill="#9498EE" d="m867 398-5 14v-7l1-2 1-2-7 1c3-3 6-4 10-4Z"/><path fill="#E840E0" d="m589 770-2 10h-1v-8l-2 1h-7c4-3 7-3 12-3Z"/><path fill="#480F8E" d="M431 735h1v14l-7-3 2-1 3 1 1-11Z"/><path fill="#48118E" d="m916 540 2 2-1 4a178 178 0 0 0-2 6h-2l-1 2 4-14Z"/><path fill="#8F90E8" d="M552 102v6l-1 2-1 2v-6l-8 2c3-3 6-4 10-6Z"/><path fill="#430F86" d="m691 919-5 2 6 7-3 2-6-10 8-1Z"/><path fill="#8B8FE7" d="M430 520c4 0 5 1 7 4l3 3 2 3 2 2h-3l-4-5-7-7Z"/><path fill="#DF47EF" d="M369 384h11l1 2-12 1v-3Z"/><path fill="#6E25C9" d="m124 581 5 1 3 1 4 3-9-2-2 4-1-7Z"/><path fill="#6F64DC" d="m418 396 14 1c-5 3-7 3-13 2l-1-3Z"/><path fill="#843BD5" d="M129 210c5 8 5 8 5 11l-1 2-3-4-1-3v-6Z"/><path fill="#6F27C9" d="m129 415 2 1-10 9-2-1 10-9Z"/><path fill="#853AD5" d="m222 229 6 9v3l-3 1v-3l-3-10Z"/><path fill="#7A57EA" d="M461 620h13c-4 2-6 2-10 2l-1 2-2-4Z"/><path fill="#7F55E3" d="m547 597 2 3-2 1-5 2-2 1-2-1 9-6Z"/><path fill="#4A1293" d="m583 541 1 2-8 7v-2l-2-1 9-6Z"/><path fill="#450F8C" d="m299 889 10 3h-7l-1 4-2-7Z"/><path fill="#865BE9" d="m644 618 9 3-4 8-1-2 2-5-6-3v-1Z"/><path fill="#3E0E7E" d="m576 548 1 3-3 2-1-3-5 2v-2c4-3 4-3 8-2Z"/><path fill="#8980EB" d="m381 406-3 1v2l-8 1c1-3 2-3 5-4l2-1 4 1Z"/><path fill="#7B6FE6" d="m387 404-1 2h-2v2h-6c3-4 4-6 9-4Z"/><path fill="#979DEE" d="m506 71-1 6-2 1v-4l-6 1 4-3 5-1Z"/><path fill="#9298ED" d="m482 80 3 1-3 1-1 3-7 1c2-3 5-4 8-6Z"/><path fill="#250957" d="m424 668 5 5-1 3c-4-2-4-2-5-5v-2l1-1Z"/><path fill="#8157E8" d="m564 584 2 1-5 6-4-1 7-6Z"/><path fill="#481091" d="m756 403 5 1c-1 3-1 3-4 5h-6l6-3-1-3Z"/><path fill="#EF4BF4" d="M343 327c3 1 6 2 8 5h-2l-4-1-2 4v-8Z"/><path fill="#845AE8" d="m331 268 2 1-1 4h-2l-1 6h-1c1-8 1-8 3-11Z"/><path fill="#7F38CC" d="M66 228c3 1 3 1 5 4l1 4-1 2-2-4-2-2-1-4Z"/><path fill="#6644CB" d="M556 151h6l-1 7-4 2 1-3v-4l-2-2Z"/><path fill="#9645EC" d="m153 111 4 1v3l-1-2h-2v6c-2-2-2-2-2-5l1-3Z"/><path fill="#611FB6" d="m614 722 4 1-2 6-2 1v-8Z"/><path fill="#4A1090" d="m708 237 5 1c0 3 0 3-2 5l-2 2-2-1 4-5-3-1v-1Z"/><path fill="#440D86" d="m919 702 1 2-3 5-2-2-3-1 7-4Z"/><path fill="#865AE8" d="m688 508 4 1 3 1 3 3-9-1-1-4Z"/><path fill="#989AF5" d="m349 422 4 2-5 2-4 3 5-7Z"/><path fill="#52139F" d="m324 370 2 5c-1 3-3 4-5 5l-2-1 2-2c2-2 3-4 3-7Z"/><path fill="#7734C5" d="m200 333 4 2 2 8c-3-2-4-5-6-8v-2Z"/><path fill="#431089" d="m897 582 1 2-3 6-3 1 5-9Z"/><path fill="#531C9D" d="M83 488h2v8h-3l1-8Z"/><path fill="#E34BF3" d="m492 365 3 1-1 1 2 1 1 6c-3-3-5-5-5-9Z"/><path fill="#7B35C9" d="m190 316 2 1v2l3 1 1 6c-3-2-4-5-6-8v-2Z"/><path fill="#771ACB" d="M751 263v2l-3 3-2 1-2 1-2-1 3-3 2-2 4-1Z"/><path fill="#8F90ED" d="M388 161h1v7h-3l-1-3 3-4Z"/><path fill="#7F39C9" d="M158 113c3 2 3 4 4 7l-2 1-3-5 1-3Z"/><path fill="#8358E6" d="m228 620 1 2-5 2v2h-3c1-3 1-3 4-5l3-1Z"/><path fill="#815AE9" d="m624 528 2 1c-2 4-4 4-8 5l6-6Z"/><path fill="#A13DE8" d="M720 221v3l-7-2c4-2 4-2 7-1Z"/><path fill="#7274D9" d="m389 166 1 4-2 2v-2l-4 2 1-4h4v-2Z"/><path fill="#833DD0" d="M184 312h2v4h2l-1 2h-2l-1-6Z"/><path fill="#0E0716" d="M768 806h8v1h-8v-1Z"/><path fill="#0D0716" d="M733 997h7v1h-7v-1Z"/><path fill="#0C0712" d="M657 976h1v6l-2-4 1-2Z"/><path fill="#100919" d="m400 674 3 3h-3v-3Z"/><path fill="#231139" d="M276 193h1v7h-1v-7Z"/><path fill="#180C29" d="M275 136h1v7h-1v-7Z"/><path fill="#0E0615" d="M752 997h6v1h-6v-1Z"/><path fill="#0F0715" d="M705 996h6v1h-6v-1Z"/><path fill="#11091F" d="m696 646 2 2-3 2 1-4Z"/><path fill="#150A25" d="M304 358h1v6h-1v-6Z"/><path fill="#160A24" d="M304 321h1v6h-1v-6Z"/><path fill="#8A40D8" d="M199 245h5l-3 2-2-2Z"/><path fill="#1F0E35" d="M275 172h1v6h-1v-6Z"/><path fill="#0E0815" d="m268 852 1 4-2-3 1-1Z"/><path fill="#0E0616" d="M761 806h5v1h-5v-1Z"/><path fill="#221036" d="m281 232 2 1-1 3-1-4Z"/><path fill="#211036" d="M275 179h1v5h-1v-5Z"/><path fill="#0B0610" d="m211 975 2 3h-2v-3Z"/><path fill="#110916" d="m605 902 3 1h-3v-1Z"/><path fill="#12091B" d="M400 679h3l-1 2-2-2Z"/><path fill="#0F0717" d="m81 541 2 3h-2v-3Z"/><path fill="#0D0918" d="M760 480h2l-1 3-1-3Z"/><path fill="#190C2A" d="m299 284 2 3h-2v-3Z"/><path fill="#8F43DE" d="m153 259 2 1-1 2-1-3Z"/><path fill="#8E42DC" d="m147 249 2 1-1 2-1-3Z"/><path fill="#200F35" d="m284 241 1 3-2-1 1-2Z"/><path fill="#7235B6" d="M154 132h2l-1 3-1-3Z"/><path fill="#0D0616" d="M284 72v3Z"/><path fill="#0E0715" d="M264 989h2l-1 2-1-2Z"/><path fill="#0C0612" d="m423 978 1 2-2-1 1-1Z"/><path fill="#0E0715" d="m658 971 1 2-2-1 1-1Z"/><path fill="#0C0614" d="m221 944 2 1-2 1v-2Z"/><path fill="#0E0716" d="m254 912 1 2-2-1 1-1Z"/><path fill="#130A18" d="m560 866 2 2h-2v-2Z"/><path fill="#0B0513" d="m310 553 2 1-2 1v-2Z"/><path fill="#0C0714" d="m76 533 2 2h-2v-2Z"/><path fill="#0B0612" d="m336 532 2 1-2 1v-2Z"/><path fill="#100816" d="m347 508 2 2h-2v-2Z"/><path fill="#0E0916" d="m731 484 2 1-2 1v-2Z"/><path fill="#130922" d="m301 368 2 1-2 1v-2Z"/><path fill="#803CC9" d="m107 348 2 1-2 1v-2Z"/><path fill="#1C0E2E" d="m274 152 2 2h-2v-2Z"/><path fill="#190C2A" d="M274 145h2l-1 2-1-2Z"/><path fill="#0D0713" d="m297 771 2 1ZM307 765l2 1Z"/></svg>