<svg width="400" height="400" xmlns="http://www.w3.org/2000/svg"><defs><radialGradient id="bg" cx="50%" cy="30%" r="70%"><stop offset="0%" style="stop-color:#2a1a4a;stop-opacity:1" /><stop offset="70%" style="stop-color:#1a0d2e;stop-opacity:1" /><stop offset="100%" style="stop-color:#0d0515;stop-opacity:1" /></radialGradient><radialGradient id="body" cx="50%" cy="40%" r="60%"><stop offset="0%" style="stop-color:#836EF9;stop-opacity:1" /><stop offset="70%" style="stop-color:#5c2a6b;stop-opacity:1" /><stop offset="100%" style="stop-color:#3d1a4a;stop-opacity:1" /></radialGradient><filter id="glow"><feGaussianBlur stdDeviation="3" result="coloredBlur"/><feMerge><feMergeNode in="coloredBlur"/><feMergeNode in="SourceGraphic"/></feMerge></filter></defs><rect width="400" height="400" fill="url(#bg)"/><circle cx="200" cy="200" r="130" fill="#A0055D" opacity="0.15"/><circle cx="200" cy="200" r="120" fill="#A0055D" opacity="0.1"/><circle cx="200" cy="200" r="110" fill="#A0055D" opacity="0.08"/><circle cx="200" cy="200" r="125" fill="none" stroke="#A0055D" stroke-width="2" opacity="0.4"><animate attributeName="opacity" values="0.2;0.6;0.2" dur="3s" repeatCount="indefinite"/></circle><ellipse cx="200" cy="280" rx="45" ry="25" fill="url(#body)" stroke="#000" stroke-width="3" filter="url(#glow)"/><circle cx="200" cy="180" r="65" fill="url(#body)" stroke="#000" stroke-width="3" filter="url(#glow)"/><circle cx="175" cy="165" r="18" fill="#FFFFFF" stroke="#000" stroke-width="2"/><circle cx="225" cy="165" r="18" fill="#FFFFFF" stroke="#000" stroke-width="2"/><circle cx="175" cy="165" r="10" fill="#000000"/><circle cx="225" cy="165" r="10" fill="#000000"/><circle cx="178" cy="162" r="3" fill="#FFFFFF"/><circle cx="228" cy="162" r="3" fill="#FFFFFF"/><circle cx="180" cy="168" r="1.5" fill="#FFFFFF" opacity="0.7"/><circle cx="230" cy="168" r="1.5" fill="#FFFFFF" opacity="0.7"/><ellipse cx="200" cy="200" rx="6" ry="4" fill="#000000"/><rect x="185" y="110" width="30" height="12" fill="#8B4513" stroke="#000" stroke-width="1" rx="3"/><circle cx="200" cy="116" r="2" fill="#FFD700"/><rect x="10" y="320" width="380" height="70" fill="#000000" fill-opacity="0.9" rx="8" stroke="#836EF9" stroke-width="1"/><text x="20" y="340" fill="#FFFFFF" font-family="Arial, sans-serif" font-size="14" font-weight="bold">Shiny Warrior</text><text x="20" y="355" fill="#836EF9" font-family="Arial, sans-serif" font-size="11">Level 3 | Warrior | Rare</text><text x="20" y="370" fill="#FFFFFF" font-family="Arial, sans-serif" font-size="10">HP:73 ATK:101 DEF:94</text><text x="20" y="383" fill="#FFFFFF" font-family="Arial, sans-serif" font-size="10">SPD:78 MAG:69 LCK:90</text><text x="280" y="370" fill="#A0055D" font-family="Arial, sans-serif" font-size="10">Wins: 0</text><text x="280" y="383" fill="#A0055D" font-family="Arial, sans-serif" font-size="10">Losses: 0</text></svg>