<svg width="400" height="400" xmlns="http://www.w3.org/2000/svg"><defs><linearGradient id="bg" x1="0%" y1="0%" x2="100%" y2="100%"><stop offset="0%" style="stop-color:#836EF9;stop-opacity:1" /><stop offset="100%" style="stop-color:#FBFAF9;stop-opacity:1" /></linearGradient><linearGradient id="body" x1="0%" y1="0%" x2="100%" y2="100%"><stop offset="0%" style="stop-color:#836EF9;stop-opacity:1" /><stop offset="100%" style="stop-color:#200052;stop-opacity:1" /></linearGradient><filter id="glow"><feGaussianBlur stdDeviation="2" result="coloredBlur"/><feMerge><feMergeNode in="coloredBlur"/><feMergeNode in="SourceGraphic"/></feMerge></filter></defs><rect width="400" height="400" fill="url(#bg)"/><polygon points="200,140 260,200 200,260 140,200" fill="url(#body)" filter="url(#glow)"/><circle cx="175" cy="180" r="18" fill="#FFFFFF" opacity="0.9"/><circle cx="225" cy="180" r="18" fill="#FFFFFF" opacity="0.9"/><circle cx="175" cy="180" r="10" fill="#000000"/><circle cx="225" cy="180" r="10" fill="#000000"/><circle cx="178" cy="177" r="3" fill="#FFFFFF"/><circle cx="228" cy="177" r="3" fill="#FFFFFF"/><path d="M 185 215 Q 200 205 215 215" stroke="#000" stroke-width="3" fill="none"/><polygon points="170,150 175,130 180,150" fill="#A0055D"/><polygon points="220,150 225,130 230,150" fill="#A0055D"/><rect x="10" y="320" width="380" height="70" fill="#000000" fill-opacity="0.8" rx="5"/><text x="20" y="340" fill="#FFFFFF" font-family="Arial, sans-serif" font-size="14" font-weight="bold">Rage Berserker</text><text x="20" y="355" fill="#836EF9" font-family="Arial, sans-serif" font-size="11">Level 8 | Berserker | Rare</text><text x="20" y="370" fill="#FFFFFF" font-family="Arial, sans-serif" font-size="10">HP:100 ATK:140 DEF:60</text><text x="20" y="383" fill="#FFFFFF" font-family="Arial, sans-serif" font-size="10">SPD:110 MAG:40 LCK:80</text><text x="280" y="370" fill="#A0055D" font-family="Arial, sans-serif" font-size="10">Wins: 15</text><text x="280" y="383" fill="#A0055D" font-family="Arial, sans-serif" font-size="10">Losses: 5</text></svg>