<svg width="400" height="400" xmlns="http://www.w3.org/2000/svg"><defs><radialGradient id="bg" cx="50%" cy="30%" r="70%"><stop offset="0%" style="stop-color:#2a1a4a;stop-opacity:1" /><stop offset="70%" style="stop-color:#1a0d2e;stop-opacity:1" /><stop offset="100%" style="stop-color:#0d0515;stop-opacity:1" /></radialGradient><radialGradient id="body" cx="50%" cy="40%" r="60%"><stop offset="0%" style="stop-color:#5a67d8;stop-opacity:1" /><stop offset="70%" style="stop-color:#4c51bf;stop-opacity:1" /><stop offset="100%" style="stop-color:#3c366b;stop-opacity:1" /></radialGradient><filter id="glow"><feGaussianBlur stdDeviation="3" result="coloredBlur"/><feMerge><feMergeNode in="coloredBlur"/><feMergeNode in="SourceGraphic"/></feMerge></filter></defs><rect width="400" height="400" fill="url(#bg)"/><circle cx="200" cy="200" r="130" fill="#836EF9" opacity="0.15"/><circle cx="200" cy="200" r="120" fill="#836EF9" opacity="0.1"/><circle cx="200" cy="200" r="110" fill="#836EF9" opacity="0.08"/><circle cx="200" cy="200" r="125" fill="none" stroke="#836EF9" stroke-width="2" opacity="0.4"><animate attributeName="opacity" values="0.2;0.6;0.2" dur="3s" repeatCount="indefinite"/></circle><rect x="160" y="260" width="80" height="40" fill="url(#body)" rx="8" stroke="#000" stroke-width="3" filter="url(#glow)"/><rect x="140" y="120" width="120" height="120" fill="url(#body)" rx="20" stroke="#000" stroke-width="3" filter="url(#glow)"/><circle cx="175" cy="165" r="18" fill="#FFFFFF" stroke="#000" stroke-width="2"/><circle cx="225" cy="165" r="18" fill="#FFFFFF" stroke="#000" stroke-width="2"/><circle cx="175" cy="165" r="10" fill="#000000"/><circle cx="225" cy="165" r="10" fill="#000000"/><circle cx="178" cy="162" r="3" fill="#FFFFFF"/><circle cx="228" cy="162" r="3" fill="#FFFFFF"/><circle cx="180" cy="168" r="1.5" fill="#FFFFFF" opacity="0.7"/><circle cx="230" cy="168" r="1.5" fill="#FFFFFF" opacity="0.7"/><ellipse cx="200" cy="190" rx="6" ry="4" fill="#000000"/><rect x="190" y="110" width="20" height="8" fill="#5a67d8" stroke="#000" stroke-width="1" rx="2"/><circle cx="200" cy="114" r="1.5" fill="#FFD700"/><circle cx="200" cy="200" r="85" fill="none" stroke="#836EF9" stroke-width="1" opacity="0.3"><animate attributeName="r" values="80;90;80" dur="4s" repeatCount="indefinite"/></circle><rect x="10" y="320" width="380" height="70" fill="#000000" fill-opacity="0.9" rx="8" stroke="#836EF9" stroke-width="1"/><text x="20" y="340" fill="#FFFFFF" font-family="Arial, sans-serif" font-size="14" font-weight="bold">Epic Guardian</text><text x="20" y="355" fill="#836EF9" font-family="Arial, sans-serif" font-size="11">Level 5 | Guardian | Epic</text><text x="20" y="370" fill="#FFFFFF" font-family="Arial, sans-serif" font-size="10">HP:158 ATK:124 DEF:168</text><text x="20" y="383" fill="#FFFFFF" font-family="Arial, sans-serif" font-size="10">SPD:106 MAG:118 LCK:110</text><text x="280" y="370" fill="#A0055D" font-family="Arial, sans-serif" font-size="10">Wins: 0</text><text x="280" y="383" fill="#A0055D" font-family="Arial, sans-serif" font-size="10">Losses: 0</text></svg>