<svg width="400" height="400" xmlns="http://www.w3.org/2000/svg"><defs><linearGradient id="bg" x1="0%" y1="0%" x2="100%" y2="100%"><stop offset="0%" style="stop-color:#836EF9;stop-opacity:1" /><stop offset="100%" style="stop-color:#FBFAF9;stop-opacity:1" /></linearGradient><linearGradient id="body" x1="0%" y1="0%" x2="100%" y2="100%"><stop offset="0%" style="stop-color:#836EF9;stop-opacity:1" /><stop offset="100%" style="stop-color:#200052;stop-opacity:1" /></linearGradient></defs><rect width="400" height="400" fill="url(#bg)"/><rect x="140" y="140" width="120" height="120" fill="url(#body)" rx="25"/><circle cx="175" cy="180" r="18" fill="#FFFFFF" opacity="0.9"/><circle cx="225" cy="180" r="18" fill="#FFFFFF" opacity="0.9"/><circle cx="175" cy="180" r="10" fill="#000000"/><circle cx="225" cy="180" r="10" fill="#000000"/><circle cx="178" cy="177" r="3" fill="#FFFFFF"/><circle cx="228" cy="177" r="3" fill="#FFFFFF"/><path d="M 185 210 Q 200 218 215 210" stroke="#000" stroke-width="2" fill="none"/><ellipse cx="120" cy="200" rx="25" ry="35" fill="#C0C0C0" stroke="#000" stroke-width="2"/><circle cx="120" cy="200" r="10" fill="#836EF9"/><rect x="10" y="320" width="380" height="70" fill="#000000" fill-opacity="0.8" rx="5"/><text x="20" y="340" fill="#FFFFFF" font-family="Arial, sans-serif" font-size="14" font-weight="bold">Shield Guardian</text><text x="20" y="355" fill="#836EF9" font-family="Arial, sans-serif" font-size="11">Level 5 | Guardian | Uncommon</text><text x="20" y="370" fill="#FFFFFF" font-family="Arial, sans-serif" font-size="10">HP:150 ATK:70 DEF:130</text><text x="20" y="383" fill="#FFFFFF" font-family="Arial, sans-serif" font-size="10">SPD:60 MAG:50 LCK:70</text><text x="280" y="370" fill="#A0055D" font-family="Arial, sans-serif" font-size="10">Wins: 3</text><text x="280" y="383" fill="#A0055D" font-family="Arial, sans-serif" font-size="10">Losses: 1</text></svg>