<svg width="400" height="400" xmlns="http://www.w3.org/2000/svg"><defs><linearGradient id="bg" x1="0%" y1="0%" x2="100%" y2="100%"><stop offset="0%" style="stop-color:#836EF9;stop-opacity:1" /><stop offset="100%" style="stop-color:#200052;stop-opacity:1" /></linearGradient><linearGradient id="body" x1="0%" y1="0%" x2="100%" y2="100%"><stop offset="0%" style="stop-color:#A0055D;stop-opacity:1" /><stop offset="100%" style="stop-color:#836EF9;stop-opacity:1" /></linearGradient><filter id="glow"><feGaussianBlur stdDeviation="4" result="coloredBlur"/><feMerge><feMergeNode in="coloredBlur"/><feMergeNode in="SourceGraphic"/></feMerge></filter></defs><rect width="400" height="400" fill="url(#bg)"/><rect x="150" y="150" width="100" height="120" fill="url(#body)" rx="15" filter="url(#glow)"/><circle cx="175" cy="180" r="18" fill="#FFFFFF" opacity="0.9"/><circle cx="225" cy="180" r="18" fill="#FFFFFF" opacity="0.9"/><circle cx="175" cy="180" r="10" fill="#000000"/><circle cx="225" cy="180" r="10" fill="#000000"/><circle cx="178" cy="177" r="3" fill="#FFFFFF"/><circle cx="228" cy="177" r="3" fill="#FFFFFF"/><path d="M 185 210 Q 200 220 215 210" stroke="#000" stroke-width="2" fill="none"/><rect x="280" y="120" width="8" height="60" fill="#C0C0C0" transform="rotate(15 284 150)"/><rect x="276" y="110" width="16" height="15" fill="#8B4513" transform="rotate(15 284 117)"/><circle cx="200" cy="200" r="80" fill="none" stroke="#FFD700" stroke-width="1" opacity="0.3"><animate attributeName="r" values="75;85;75" dur="3s" repeatCount="indefinite"/></circle><rect x="10" y="320" width="380" height="70" fill="#000000" fill-opacity="0.8" rx="5"/><text x="20" y="340" fill="#FFFFFF" font-family="Arial, sans-serif" font-size="14" font-weight="bold">Warrior Alpha</text><text x="20" y="355" fill="#836EF9" font-family="Arial, sans-serif" font-size="11">Level 15 | Warrior | Legendary</text><text x="20" y="370" fill="#FFFFFF" font-family="Arial, sans-serif" font-size="10">HP:180 ATK:120 DEF:110</text><text x="20" y="383" fill="#FFFFFF" font-family="Arial, sans-serif" font-size="10">SPD:85 MAG:60 LCK:75</text><text x="280" y="370" fill="#A0055D" font-family="Arial, sans-serif" font-size="10">Wins: 12</text><text x="280" y="383" fill="#A0055D" font-family="Arial, sans-serif" font-size="10">Losses: 3</text></svg>