<svg width="400" height="400" xmlns="http://www.w3.org/2000/svg"><defs><linearGradient id="bg" x1="0%" y1="0%" x2="100%" y2="100%"><stop offset="0%" style="stop-color:#200052;stop-opacity:1" /><stop offset="100%" style="stop-color:#836EF9;stop-opacity:1" /></linearGradient><linearGradient id="body" x1="0%" y1="0%" x2="100%" y2="100%"><stop offset="0%" style="stop-color:#836EF9;stop-opacity:1" /><stop offset="100%" style="stop-color:#FBFAF9;stop-opacity:1" /></linearGradient><filter id="glow"><feGaussianBlur stdDeviation="4" result="coloredBlur"/><feMerge><feMergeNode in="coloredBlur"/><feMergeNode in="SourceGraphic"/></feMerge></filter></defs><rect width="400" height="400" fill="url(#bg)"/><ellipse cx="200" cy="210" rx="50" ry="70" fill="url(#body)" filter="url(#glow)"/><circle cx="175" cy="180" r="18" fill="#FFFFFF" opacity="0.9"/><circle cx="225" cy="180" r="18" fill="#FFFFFF" opacity="0.9"/><circle cx="175" cy="180" r="10" fill="#000000"/><circle cx="225" cy="180" r="10" fill="#000000"/><circle cx="178" cy="177" r="3" fill="#FFFFFF"/><circle cx="228" cy="177" r="3" fill="#FFFFFF"/><path d="M 190 210 Q 200 215 210 210" stroke="#000" stroke-width="2" fill="none"/><path d="M 160 140 Q 200 120 240 140 L 240 180 Q 200 160 160 180 Z" fill="#200052" opacity="0.7"/><circle cx="120" cy="120" r="2" fill="#FFD700" opacity="0.8"><animate attributeName="opacity" values="0;1;0" dur="1s" repeatCount="indefinite"/></circle><circle cx="280" cy="150" r="2" fill="#FFD700" opacity="0.6"><animate attributeName="opacity" values="0;1;0" dur="1.5s" repeatCount="indefinite"/></circle><circle cx="150" cy="300" r="2" fill="#FFD700" opacity="0.7"><animate attributeName="opacity" values="0;1;0" dur="2s" repeatCount="indefinite"/></circle><rect x="10" y="320" width="380" height="70" fill="#000000" fill-opacity="0.8" rx="5"/><text x="20" y="340" fill="#FFFFFF" font-family="Arial, sans-serif" font-size="14" font-weight="bold">Shadow Assassin</text><text x="20" y="355" fill="#836EF9" font-family="Arial, sans-serif" font-size="11">Level 20 | Assassin | Mythic</text><text x="20" y="370" fill="#FFFFFF" font-family="Arial, sans-serif" font-size="10">HP:140 ATK:150 DEF:80</text><text x="20" y="383" fill="#FFFFFF" font-family="Arial, sans-serif" font-size="10">SPD:140 MAG:90 LCK:95</text><text x="280" y="370" fill="#A0055D" font-family="Arial, sans-serif" font-size="10">Wins: 25</text><text x="280" y="383" fill="#A0055D" font-family="Arial, sans-serif" font-size="10">Losses: 1</text></svg>