<svg width="400" height="400" xmlns="http://www.w3.org/2000/svg"><defs><linearGradient id="bg" x1="0%" y1="0%" x2="100%" y2="100%"><stop offset="0%" style="stop-color:#836EF9;stop-opacity:1" /><stop offset="100%" style="stop-color:#FBFAF9;stop-opacity:1" /></linearGradient><linearGradient id="body" x1="0%" y1="0%" x2="100%" y2="100%"><stop offset="0%" style="stop-color:#836EF9;stop-opacity:1" /><stop offset="100%" style="stop-color:#200052;stop-opacity:1" /></linearGradient><filter id="glow"><feGaussianBlur stdDeviation="2" result="coloredBlur"/><feMerge><feMergeNode in="coloredBlur"/><feMergeNode in="SourceGraphic"/></feMerge></filter></defs><rect width="400" height="400" fill="url(#bg)"/><circle cx="200" cy="200" r="60" fill="url(#body)" filter="url(#glow)"/><circle cx="175" cy="180" r="18" fill="#FFFFFF" opacity="0.9"/><circle cx="225" cy="180" r="18" fill="#FFFFFF" opacity="0.9"/><circle cx="175" cy="180" r="10" fill="#000000"/><circle cx="225" cy="180" r="10" fill="#000000"/><circle cx="178" cy="177" r="3" fill="#FFFFFF"/><circle cx="228" cy="177" r="3" fill="#FFFFFF"/><ellipse cx="200" cy="210" rx="8" ry="4" fill="#000000"/><polygon points="200,120 170,160 230,160" fill="#836EF9"/><circle cx="185" cy="155" r="4" fill="#FFD700"/><circle cx="215" cy="155" r="4" fill="#FFD700"/><rect x="10" y="320" width="380" height="70" fill="#000000" fill-opacity="0.8" rx="5"/><text x="20" y="340" fill="#FFFFFF" font-family="Arial, sans-serif" font-size="14" font-weight="bold">Arcane Mage</text><text x="20" y="355" fill="#836EF9" font-family="Arial, sans-serif" font-size="11">Level 12 | Mage | Epic</text><text x="20" y="370" fill="#FFFFFF" font-family="Arial, sans-serif" font-size="10">HP:120 ATK:85 DEF:70</text><text x="20" y="383" fill="#FFFFFF" font-family="Arial, sans-serif" font-size="10">SPD:90 MAG:160 LCK:110</text><text x="280" y="370" fill="#A0055D" font-family="Arial, sans-serif" font-size="10">Wins: 8</text><text x="280" y="383" fill="#A0055D" font-family="Arial, sans-serif" font-size="10">Losses: 2</text></svg>